# xmcd
#
# Track frame offsets:
#	150
#	19347
#	32462
#	55905
#	71482
#	79537
#	104067
#	132892
#	157207
#	179602
#	206047
#
# Disc length: 2961 seconds
#
# Revision: 1
# Processed by: cddbd v1.4PL0 Copyright (c) Steve Scherf et al.
# Submitted via: EasyCDDAExtractor 4.6.9.1
#
DISCID=9b0b8f0b
DTITLE=Matt Walker - I Listen to the NIght
DYEAR=1998
DGENRE=Blues
TTITLE0=All By Myself
TTITLE1=I Listen To The Night
TTITLE2=This Broken Sky
TTITLE3=You Tell Me Why
TTITLE4=Danielle
TTITLE5=Rocks And Gravel
TTITLE6=Walk On
TTITLE7=I Can Tell
TTITLE8=Got You On My Mind
TTITLE9=Catch That Plane
TTITLE10=I'm A King Bee
EXTD=With Ashley Davies
EXTT0=
EXTT1=
EXTT2=
EXTT3=
EXTT4=
EXTT5=
EXTT6=
EXTT7=
EXTT8=
EXTT9=
EXTT10=
PLAYORDER=
